<mxfile host="Electron" agent="Mozilla/5.0 (Windows NT 10.0; Win64; x64) AppleWebKit/537.36 (KHTML, like Gecko) draw.io/28.0.6 Chrome/138.0.7204.100 Electron/37.2.3 Safari/537.36" version="28.0.6">
  <diagram name="Page-1" id="qKECmdVUPzv1oN_1FPUR">
    <mxGraphModel dx="2815" dy="1290" grid="1" gridSize="10" guides="1" tooltips="1" connect="1" arrows="1" fold="1" page="1" pageScale="1" pageWidth="850" pageHeight="1100" math="0" shadow="0">
      <root>
        <mxCell id="0" />
        <mxCell id="1" parent="0" />
        <mxCell id="m6mte4KF4SMF90zAuznl-1" value="crm_cust_info" style="swimlane;fontStyle=0;childLayout=stackLayout;horizontal=1;startSize=30;horizontalStack=0;resizeParent=1;resizeParentMax=0;resizeLast=0;collapsible=1;marginBottom=0;whiteSpace=wrap;html=1;swimlaneFillColor=none;fillColor=#dae8fc;rounded=1;strokeColor=#6c8ebf;fontSize=30;" parent="1" vertex="1">
          <mxGeometry x="-300" y="589" width="243" height="110" as="geometry" />
        </mxCell>
        <mxCell id="m6mte4KF4SMF90zAuznl-2" value="cst_id" style="text;strokeColor=none;fillColor=none;align=left;verticalAlign=middle;spacingLeft=4;spacingRight=4;overflow=hidden;points=[[0,0.5],[1,0.5]];portConstraint=eastwest;rotatable=0;whiteSpace=wrap;html=1;fontSize=30;" parent="m6mte4KF4SMF90zAuznl-1" vertex="1">
          <mxGeometry y="30" width="243" height="40" as="geometry" />
        </mxCell>
        <mxCell id="m6mte4KF4SMF90zAuznl-5" value="cst_key" style="text;strokeColor=none;fillColor=none;align=left;verticalAlign=middle;spacingLeft=4;spacingRight=4;overflow=hidden;points=[[0,0.5],[1,0.5]];portConstraint=eastwest;rotatable=0;whiteSpace=wrap;html=1;fontSize=30;" parent="m6mte4KF4SMF90zAuznl-1" vertex="1">
          <mxGeometry y="70" width="243" height="40" as="geometry" />
        </mxCell>
        <mxCell id="m6mte4KF4SMF90zAuznl-6" value="crm_prd_info" style="swimlane;fontStyle=0;childLayout=stackLayout;horizontal=1;startSize=30;horizontalStack=0;resizeParent=1;resizeParentMax=0;resizeLast=0;collapsible=1;marginBottom=0;whiteSpace=wrap;html=1;swimlaneFillColor=none;fillColor=#dae8fc;rounded=1;strokeColor=#6c8ebf;fontSize=30;" parent="1" vertex="1">
          <mxGeometry x="-298.5" y="339" width="240" height="70" as="geometry" />
        </mxCell>
        <mxCell id="m6mte4KF4SMF90zAuznl-7" value="prd_key" style="text;strokeColor=none;fillColor=none;align=left;verticalAlign=middle;spacingLeft=4;spacingRight=4;overflow=hidden;points=[[0,0.5],[1,0.5]];portConstraint=eastwest;rotatable=0;whiteSpace=wrap;html=1;fontSize=30;" parent="m6mte4KF4SMF90zAuznl-6" vertex="1">
          <mxGeometry y="30" width="240" height="40" as="geometry" />
        </mxCell>
        <mxCell id="m6mte4KF4SMF90zAuznl-9" value="crm_sales details" style="swimlane;fontStyle=0;childLayout=stackLayout;horizontal=1;startSize=30;horizontalStack=0;resizeParent=1;resizeParentMax=0;resizeLast=0;collapsible=1;marginBottom=0;whiteSpace=wrap;html=1;swimlaneFillColor=none;fillColor=#dae8fc;rounded=1;strokeColor=#6c8ebf;fontSize=30;" parent="1" vertex="1">
          <mxGeometry x="-680" y="439" width="243" height="120" as="geometry" />
        </mxCell>
        <mxCell id="m6mte4KF4SMF90zAuznl-10" value="prd_key" style="text;strokeColor=none;fillColor=none;align=left;verticalAlign=middle;spacingLeft=4;spacingRight=4;overflow=hidden;points=[[0,0.5],[1,0.5]];portConstraint=eastwest;rotatable=0;whiteSpace=wrap;html=1;fontSize=30;" parent="m6mte4KF4SMF90zAuznl-9" vertex="1">
          <mxGeometry y="30" width="243" height="40" as="geometry" />
        </mxCell>
        <mxCell id="m6mte4KF4SMF90zAuznl-11" value="cst_id" style="text;strokeColor=none;fillColor=none;align=left;verticalAlign=middle;spacingLeft=4;spacingRight=4;overflow=hidden;points=[[0,0.5],[1,0.5]];portConstraint=eastwest;rotatable=0;whiteSpace=wrap;html=1;fontSize=30;" parent="m6mte4KF4SMF90zAuznl-9" vertex="1">
          <mxGeometry y="70" width="243" height="50" as="geometry" />
        </mxCell>
        <mxCell id="m6mte4KF4SMF90zAuznl-12" value="erp_px_cat_g1v1" style="swimlane;fontStyle=0;childLayout=stackLayout;horizontal=1;startSize=30;horizontalStack=0;resizeParent=1;resizeParentMax=0;resizeLast=0;collapsible=1;marginBottom=0;whiteSpace=wrap;html=1;swimlaneFillColor=none;fillColor=#fff2cc;rounded=1;strokeColor=#d6b656;fontSize=30;" parent="1" vertex="1">
          <mxGeometry x="272" y="299" width="243" height="70" as="geometry" />
        </mxCell>
        <mxCell id="m6mte4KF4SMF90zAuznl-13" value="id" style="text;strokeColor=none;fillColor=none;align=left;verticalAlign=middle;spacingLeft=4;spacingRight=4;overflow=hidden;points=[[0,0.5],[1,0.5]];portConstraint=eastwest;rotatable=0;whiteSpace=wrap;html=1;fontSize=30;" parent="m6mte4KF4SMF90zAuznl-12" vertex="1">
          <mxGeometry y="30" width="243" height="40" as="geometry" />
        </mxCell>
        <mxCell id="m6mte4KF4SMF90zAuznl-22" style="edgeStyle=orthogonalEdgeStyle;rounded=0;orthogonalLoop=1;jettySize=auto;html=1;entryX=1;entryY=0.5;entryDx=0;entryDy=0;" parent="1" source="m6mte4KF4SMF90zAuznl-15" target="m6mte4KF4SMF90zAuznl-5" edge="1">
          <mxGeometry relative="1" as="geometry" />
        </mxCell>
        <mxCell id="m6mte4KF4SMF90zAuznl-15" value="erp_loc_a101" style="swimlane;fontStyle=0;childLayout=stackLayout;horizontal=1;startSize=30;horizontalStack=0;resizeParent=1;resizeParentMax=0;resizeLast=0;collapsible=1;marginBottom=0;whiteSpace=wrap;html=1;swimlaneFillColor=none;fillColor=#fff2cc;rounded=1;strokeColor=#d6b656;fontSize=30;" parent="1" vertex="1">
          <mxGeometry x="277" y="692" width="240" height="70" as="geometry" />
        </mxCell>
        <mxCell id="m6mte4KF4SMF90zAuznl-16" value="cid" style="text;strokeColor=none;fillColor=none;align=left;verticalAlign=middle;spacingLeft=4;spacingRight=4;overflow=hidden;points=[[0,0.5],[1,0.5]];portConstraint=eastwest;rotatable=0;whiteSpace=wrap;html=1;fontSize=30;" parent="m6mte4KF4SMF90zAuznl-15" vertex="1">
          <mxGeometry y="30" width="240" height="40" as="geometry" />
        </mxCell>
        <mxCell id="m6mte4KF4SMF90zAuznl-17" value="erp_cust_az12" style="swimlane;fontStyle=0;childLayout=stackLayout;horizontal=1;startSize=30;horizontalStack=0;resizeParent=1;resizeParentMax=0;resizeLast=0;collapsible=1;marginBottom=0;whiteSpace=wrap;html=1;swimlaneFillColor=none;fillColor=#fff2cc;rounded=1;strokeColor=#d6b656;fontSize=30;" parent="1" vertex="1">
          <mxGeometry x="277" y="479" width="240" height="70" as="geometry" />
        </mxCell>
        <mxCell id="m6mte4KF4SMF90zAuznl-18" value="cid" style="text;strokeColor=none;fillColor=none;align=left;verticalAlign=middle;spacingLeft=4;spacingRight=4;overflow=hidden;points=[[0,0.5],[1,0.5]];portConstraint=eastwest;rotatable=0;whiteSpace=wrap;html=1;fontSize=30;" parent="m6mte4KF4SMF90zAuznl-17" vertex="1">
          <mxGeometry y="30" width="240" height="40" as="geometry" />
        </mxCell>
        <mxCell id="m6mte4KF4SMF90zAuznl-20" style="edgeStyle=orthogonalEdgeStyle;rounded=0;orthogonalLoop=1;jettySize=auto;html=1;entryX=1;entryY=0.5;entryDx=0;entryDy=0;" parent="1" source="m6mte4KF4SMF90zAuznl-18" target="m6mte4KF4SMF90zAuznl-5" edge="1">
          <mxGeometry relative="1" as="geometry" />
        </mxCell>
        <mxCell id="m6mte4KF4SMF90zAuznl-23" style="edgeStyle=orthogonalEdgeStyle;rounded=0;orthogonalLoop=1;jettySize=auto;html=1;entryX=1;entryY=0.5;entryDx=0;entryDy=0;" parent="1" source="m6mte4KF4SMF90zAuznl-13" target="m6mte4KF4SMF90zAuznl-7" edge="1">
          <mxGeometry relative="1" as="geometry" />
        </mxCell>
        <mxCell id="m6mte4KF4SMF90zAuznl-24" style="edgeStyle=orthogonalEdgeStyle;rounded=0;orthogonalLoop=1;jettySize=auto;html=1;entryX=0;entryY=0.5;entryDx=0;entryDy=0;" parent="1" source="m6mte4KF4SMF90zAuznl-10" target="m6mte4KF4SMF90zAuznl-7" edge="1">
          <mxGeometry relative="1" as="geometry" />
        </mxCell>
        <mxCell id="m6mte4KF4SMF90zAuznl-27" value="" style="rounded=1;whiteSpace=wrap;html=1;fillColor=none;dashed=1;" parent="1" vertex="1">
          <mxGeometry x="-700" y="224" width="680" height="620" as="geometry" />
        </mxCell>
        <mxCell id="m6mte4KF4SMF90zAuznl-29" value="" style="rounded=1;whiteSpace=wrap;html=1;fillColor=none;dashed=1;" parent="1" vertex="1">
          <mxGeometry x="40" y="224" width="680" height="620" as="geometry" />
        </mxCell>
        <mxCell id="m6mte4KF4SMF90zAuznl-30" value="&lt;b&gt;&lt;font style=&quot;font-size: 35px;&quot;&gt;CRM&lt;/font&gt;&lt;/b&gt;" style="rounded=1;whiteSpace=wrap;html=1;fillColor=#dae8fc;strokeColor=#6c8ebf;" parent="1" vertex="1">
          <mxGeometry x="-427" y="189" width="120" height="60" as="geometry" />
        </mxCell>
        <mxCell id="m6mte4KF4SMF90zAuznl-31" value="&lt;b&gt;&lt;font style=&quot;font-size: 35px;&quot;&gt;ERP&lt;/font&gt;&lt;/b&gt;" style="rounded=1;whiteSpace=wrap;html=1;fillColor=#fff2cc;strokeColor=#d6b656;" parent="1" vertex="1">
          <mxGeometry x="320" y="189" width="120" height="60" as="geometry" />
        </mxCell>
        <mxCell id="m6mte4KF4SMF90zAuznl-32" style="edgeStyle=orthogonalEdgeStyle;rounded=0;orthogonalLoop=1;jettySize=auto;html=1;exitX=1;exitY=0.5;exitDx=0;exitDy=0;entryX=0;entryY=0.5;entryDx=0;entryDy=0;" parent="1" source="m6mte4KF4SMF90zAuznl-11" target="m6mte4KF4SMF90zAuznl-2" edge="1">
          <mxGeometry relative="1" as="geometry" />
        </mxCell>
        <mxCell id="m6mte4KF4SMF90zAuznl-33" value="&lt;b style=&quot;font-size: 35px;&quot;&gt;Integration Model:&lt;/b&gt;&lt;font style=&quot;font-size: 24px;&quot;&gt; (how the tables are related)&lt;/font&gt;" style="rounded=0;whiteSpace=wrap;html=1;fillColor=none;strokeColor=none;" parent="1" vertex="1">
          <mxGeometry x="-840" y="40" width="640" height="80" as="geometry" />
        </mxCell>
        <mxCell id="m6mte4KF4SMF90zAuznl-34" value="&lt;font style=&quot;font-size: 24px;&quot;&gt;Transactional Records about Sales &amp;amp; Orders&lt;/font&gt;" style="text;html=1;align=center;verticalAlign=middle;whiteSpace=wrap;rounded=0;" parent="1" vertex="1">
          <mxGeometry x="-680" y="370" width="273.5" height="60" as="geometry" />
        </mxCell>
        <mxCell id="m6mte4KF4SMF90zAuznl-35" value="&lt;font style=&quot;font-size: 24px;&quot;&gt;Customer Information&lt;/font&gt;" style="text;html=1;align=center;verticalAlign=middle;whiteSpace=wrap;rounded=0;" parent="1" vertex="1">
          <mxGeometry x="-330" y="549" width="280" height="31" as="geometry" />
        </mxCell>
        <mxCell id="m6mte4KF4SMF90zAuznl-36" value="&lt;font style=&quot;font-size: 24px;&quot;&gt;Current &amp;amp; History Product Information&lt;/font&gt;" style="text;html=1;align=center;verticalAlign=middle;whiteSpace=wrap;rounded=0;" parent="1" vertex="1">
          <mxGeometry x="-350" y="249" width="300" height="99" as="geometry" />
        </mxCell>
        <mxCell id="m6mte4KF4SMF90zAuznl-37" value="&lt;span style=&quot;font-size: 24px;&quot;&gt;Product Categories&lt;/span&gt;" style="text;html=1;align=center;verticalAlign=middle;whiteSpace=wrap;rounded=0;" parent="1" vertex="1">
          <mxGeometry x="230" y="249" width="300" height="50" as="geometry" />
        </mxCell>
        <mxCell id="m6mte4KF4SMF90zAuznl-38" value="&lt;span style=&quot;font-size: 24px;&quot;&gt;Extra Customer Information (Birthdate)&lt;/span&gt;" style="text;html=1;align=center;verticalAlign=middle;whiteSpace=wrap;rounded=0;" parent="1" vertex="1">
          <mxGeometry x="230" y="410" width="300" height="69" as="geometry" />
        </mxCell>
        <mxCell id="m6mte4KF4SMF90zAuznl-39" value="&lt;span style=&quot;font-size: 24px;&quot;&gt;Location of Customers (Country)&lt;/span&gt;" style="text;html=1;align=center;verticalAlign=middle;whiteSpace=wrap;rounded=0;" parent="1" vertex="1">
          <mxGeometry x="243.5" y="620" width="300" height="69" as="geometry" />
        </mxCell>
        <mxCell id="XxLbAXwpudUSPMhAUv6K-1" value="&lt;font style=&quot;font-size: 22px;&quot;&gt;&lt;b&gt;Product&lt;/b&gt;&lt;/font&gt;" style="rounded=0;whiteSpace=wrap;html=1;fillColor=#f8cecc;strokeColor=#b85450;" parent="1" vertex="1">
          <mxGeometry x="-302.5" y="413" width="250" height="38" as="geometry" />
        </mxCell>
        <mxCell id="XxLbAXwpudUSPMhAUv6K-2" value="&lt;font style=&quot;font-size: 22px;&quot;&gt;&lt;b&gt;Product&lt;/b&gt;&lt;/font&gt;" style="rounded=0;whiteSpace=wrap;html=1;fillColor=#f8cecc;strokeColor=#b85450;" parent="1" vertex="1">
          <mxGeometry x="277" y="370" width="250" height="38" as="geometry" />
        </mxCell>
        <mxCell id="XxLbAXwpudUSPMhAUv6K-3" value="&lt;font style=&quot;font-size: 22px;&quot;&gt;&lt;b&gt;Customer&lt;/b&gt;&lt;/font&gt;" style="rounded=0;whiteSpace=wrap;html=1;fillColor=#d5e8d4;strokeColor=#82b366;" parent="1" vertex="1">
          <mxGeometry x="268.5" y="551" width="250" height="38" as="geometry" />
        </mxCell>
        <mxCell id="XxLbAXwpudUSPMhAUv6K-4" value="&lt;font style=&quot;font-size: 22px;&quot;&gt;&lt;b&gt;Customer&lt;/b&gt;&lt;/font&gt;" style="rounded=0;whiteSpace=wrap;html=1;fillColor=#d5e8d4;strokeColor=#82b366;" parent="1" vertex="1">
          <mxGeometry x="272" y="760" width="250" height="38" as="geometry" />
        </mxCell>
        <mxCell id="XxLbAXwpudUSPMhAUv6K-5" value="&lt;font style=&quot;font-size: 22px;&quot;&gt;&lt;b&gt;Customer&lt;/b&gt;&lt;/font&gt;" style="rounded=0;whiteSpace=wrap;html=1;fillColor=#d5e8d4;strokeColor=#82b366;" parent="1" vertex="1">
          <mxGeometry x="-305.5" y="699" width="250" height="38" as="geometry" />
        </mxCell>
        <mxCell id="XxLbAXwpudUSPMhAUv6K-6" value="&lt;font style=&quot;font-size: 22px;&quot;&gt;&lt;b&gt;Sales&lt;/b&gt;&lt;/font&gt;" style="rounded=0;whiteSpace=wrap;html=1;fillColor=#e1d5e7;strokeColor=#9673a6;" parent="1" vertex="1">
          <mxGeometry x="-680" y="559" width="250" height="38" as="geometry" />
        </mxCell>
      </root>
    </mxGraphModel>
  </diagram>
</mxfile>
